<mxfile host="Electron" agent="Mozilla/5.0 (Windows NT 10.0; Win64; x64) AppleWebKit/537.36 (KHTML, like Gecko) draw.io/28.1.2 Chrome/138.0.7204.243 Electron/37.4.0 Safari/537.36" version="28.1.2">
  <diagram name="Seite-1" id="qfYk1F9ai-LoV5AjmqRV">
    <mxGraphModel dx="1426" dy="841" grid="1" gridSize="10" guides="1" tooltips="1" connect="1" arrows="1" fold="1" page="1" pageScale="1" pageWidth="827" pageHeight="1169" math="0" shadow="0">
      <root>
        <mxCell id="0" />
        <mxCell id="1" parent="0" />
        <mxCell id="YaV_fr73XQ7WUr0vQ3El-3" value="" style="edgeStyle=orthogonalEdgeStyle;rounded=0;orthogonalLoop=1;jettySize=auto;html=1;" edge="1" parent="1" source="YaV_fr73XQ7WUr0vQ3El-1" target="YaV_fr73XQ7WUr0vQ3El-2">
          <mxGeometry relative="1" as="geometry" />
        </mxCell>
        <mxCell id="YaV_fr73XQ7WUr0vQ3El-1" value="&lt;font style=&quot;font-size: 20px;&quot;&gt;Start&lt;/font&gt;" style="ellipse;whiteSpace=wrap;html=1;" vertex="1" parent="1">
          <mxGeometry x="390" y="50" width="120" height="80" as="geometry" />
        </mxCell>
        <mxCell id="YaV_fr73XQ7WUr0vQ3El-5" value="" style="edgeStyle=orthogonalEdgeStyle;rounded=0;orthogonalLoop=1;jettySize=auto;html=1;" edge="1" parent="1" source="YaV_fr73XQ7WUr0vQ3El-2" target="YaV_fr73XQ7WUr0vQ3El-4">
          <mxGeometry relative="1" as="geometry" />
        </mxCell>
        <mxCell id="YaV_fr73XQ7WUr0vQ3El-2" value="&lt;font style=&quot;font-size: 20px;&quot;&gt;print: Hello!&lt;/font&gt;" style="rounded=0;whiteSpace=wrap;html=1;" vertex="1" parent="1">
          <mxGeometry x="365" y="200" width="170" height="90" as="geometry" />
        </mxCell>
        <mxCell id="YaV_fr73XQ7WUr0vQ3El-4" value="&lt;font style=&quot;font-size: 20px;&quot;&gt;End&lt;/font&gt;" style="ellipse;whiteSpace=wrap;html=1;" vertex="1" parent="1">
          <mxGeometry x="360" y="360" width="180" height="120" as="geometry" />
        </mxCell>
        <mxCell id="YaV_fr73XQ7WUr0vQ3El-6" value="&lt;font style=&quot;font-size: 21px;&quot;&gt;this process shall be written in phyton!&lt;/font&gt;" style="shape=document;whiteSpace=wrap;html=1;boundedLbl=1;" vertex="1" parent="1">
          <mxGeometry x="70" y="170" width="230" height="160" as="geometry" />
        </mxCell>
        <mxCell id="YaV_fr73XQ7WUr0vQ3El-8" value="&lt;h1 style=&quot;margin-top: 0px;&quot;&gt;Pseudo Code&lt;/h1&gt;&lt;p&gt;&lt;b&gt;&lt;font style=&quot;font-size: 25px;&quot;&gt;---------------&lt;/font&gt;&lt;/b&gt;&lt;/p&gt;&lt;p&gt;&lt;font style=&quot;font-size: 25px;&quot;&gt;START&lt;/font&gt;&lt;/p&gt;&lt;p&gt;&lt;font style=&quot;font-size: 25px;&quot;&gt;PRINT &quot;Hello!&quot;&lt;/font&gt;&lt;/p&gt;&lt;p&gt;&lt;span style=&quot;font-size: 25px;&quot;&gt;END&lt;/span&gt;&lt;/p&gt;" style="text;html=1;whiteSpace=wrap;overflow=hidden;rounded=0;" vertex="1" parent="1">
          <mxGeometry x="590" y="170" width="180" height="230" as="geometry" />
        </mxCell>
      </root>
    </mxGraphModel>
  </diagram>
</mxfile>
